# xmcd
#
# Track frame offsets:
#	150
#	24287
#	42035
#	69477
#	86827
#	110342
#	125677
#	154712
#	198552
#	208450
#
# Disc length: 3028 seconds
#
# Revision: 10
# Processed by: cddbd v1.5.2PL0 Copyright (c) Steve Scherf et al.
# Submitted via: Jack! The Knife 20 Magnifico
#
DISCID=8a0bd20a
DTITLE=Manowar - Louder Than Hell
DYEAR=1996
DGENRE=Heavy Metal
TTITLE0=Return Of The Warlord
TTITLE1=Brothers Of Metal (Part 1)
TTITLE2=The Gods Made Heavy Metal
TTITLE3=Courage
TTITLE4=Number 1
TTITLE5=Outlaw
TTITLE6=King
TTITLE7=Today Is a Good Day To Die
TTITLE8=My Spirit Lives On
TTITLE9=The Power
EXTD=Manowar
EXTT0=DeMaio, Logan
EXTT1=Joey DeMaio
EXTT2=DeMaio, Logan
EXTT3=Joey DeMaio
EXTT4=Joey DeMaio
EXTT5=DeMaio, Logan
EXTT6=Joey DeMaio
EXTT7=Joey DeMaio
EXTT8=DeMaio, Logan
EXTT9=Joey DeMaio
PLAYORDER=
